PathFileType	4	(X/Y/Z)	C:\Users\WrightLab\Desktop\Jo\P5V24.trc
DataRate	CameraRate	NumFrames	NumMarkers	Units	OrigDataRate	OrigDataStartFrame	OrigNumFrames
100.00	100.00	      31	19	mm	100.00	1	      1161
Frame#	Time	Headset_Front			Headset_Back			Headset_Left			Headset_Right			Left_Shoulder			Right_Shoulder			Sternum			C7			Left Elbow			Right Elbow			Left Wrist			Right Wrist			Left ASIS			Right ASIS			S2			Left Knee			Right Knee			Left Ankle			Right Ankle			
		X1	Y1	Z1	X2	Y2	Z2	X3	Y3	Z3	X4	Y4	Z4	X5	Y5	Z5	X6	Y6	Z6	X7	Y7	Z7	X8	Y8	Z8	X9	Y9	Z9	X10	Y10	Z10	X11	Y11	Z11	X12	Y12	Z12	X13	Y13	Z13	X14	Y14	Z14	X15	Y15	Z15	X16	Y16	Z16	X17	Y17	Z17	X18	Y18	Z18	X19	Y19	Z19	

1	0.000										-375.28860	1558.96631	-1083.82483																-534.16980	1160.89075	-1294.57336				-520.83746	997.00128	-1113.72290	-123.42445	917.04071	-1131.25928	-392.72284	942.85358	-1126.12854				-97.94442	471.60226	-1172.91052	-460.94797	478.23758	-1181.74231							
2	0.010										-375.42221	1557.93494	-1083.69556																-534.50757	1160.60620	-1293.80359				-521.79095	997.67676	-1114.06702	-123.45491	917.02991	-1131.28015	-392.97623	942.94531	-1125.88245				-98.04241	471.55536	-1172.93909	-460.96432	478.23038	-1181.49072							
3	0.020										-375.52817	1556.94043	-1083.39368																-534.60223	1160.58728	-1293.88562				-521.18488	996.69092	-1114.13611	-123.48517	917.04504	-1131.30164	-393.12585	942.81995	-1125.92517				-98.12277	471.72397	-1172.84399	-460.94901	478.22183	-1181.48315							
4	0.030										-375.72623	1555.63171	-1082.67920																-534.75165	1160.58228	-1293.97607				-521.91119	997.56195	-1114.13269	-123.47230	917.05890	-1131.29309	-393.15155	942.82855	-1125.93787				-98.46299	471.71594	-1172.89355	-461.29648	478.34464	-1181.10986							
5	0.040										-375.78229	1554.80139	-1082.19751																-535.21301	1160.81555	-1294.27039				-521.91754	997.56573	-1114.13599	-123.50952	917.04980	-1131.31873	-393.26367	942.71234	-1125.93140				-98.51735	471.67606	-1172.90540	-461.32016	478.69693	-1181.59705							
6	0.050										-375.91605	1554.17175	-1082.24121																-535.42755	1160.78967	-1294.49915				-521.93134	997.57385	-1114.14307	-123.54531	917.04218	-1131.34338	-393.93161	942.75519	-1126.04590				-98.91529	471.57236	-1172.36401	-461.37936	477.85516	-1180.39893							
7	0.060										-376.01859	1553.37976	-1081.76111																-535.89294	1161.06274	-1295.08386				-522.02673	997.51660	-1114.38318	-123.49133	917.05737	-1131.30627	-393.83438	942.37836	-1125.76941				-98.57151	471.64047	-1172.91846	-461.57767	478.03595	-1181.50745							
8	0.070										-376.28473	1552.48706	-1081.83850																-536.10034	1161.06458	-1295.22949				-522.17639	997.39801	-1114.51074	-123.47226	917.15521	-1132.38501	-393.64374	942.39026	-1126.11035				-98.97996	471.54614	-1172.38416	-461.63513	478.00497	-1181.37708							
9	0.080										-376.48859	1552.00745	-1081.96301																-536.29871	1161.08923	-1295.31519				-522.18170	997.40112	-1114.51355	-123.48097	917.16174	-1132.39124	-393.89984	942.15179	-1126.46362				-98.94688	471.56427	-1172.37512	-461.64304	478.05685	-1181.53796							
10	0.090										-376.70447	1551.29602	-1081.63196																-536.46753	1161.09839	-1295.40320				-522.20099	997.41254	-1114.52344	-123.46482	917.15240	-1132.37976	-393.91299	942.15283	-1126.46985				-98.94635	471.56094	-1172.37402	-461.71500	478.01059	-1181.80249							
11	0.100										-376.77057	1551.08984	-1081.69226																-536.98486	1161.13599	-1295.07703				-522.20703	997.41608	-1114.52649	-123.48752	917.17047	-1132.39600	-394.19589	942.18854	-1126.65698				-98.91561	471.58820	-1172.36865	-461.72964	477.98157	-1181.80542							
12	0.110										-376.87952	1550.80115	-1081.50439																-537.18188	1161.14673	-1295.16418				-522.22498	997.42670	-1114.53564	-123.49931	917.17029	-1132.40430	-394.33282	942.24231	-1126.52295				-98.91930	471.58850	-1172.37036	-461.40964	477.86057	-1182.19080							
13	0.120										-377.13800	1550.26453	-1081.55444																-537.43750	1161.18335	-1295.29761				-522.23669	997.43365	-1114.54163	-123.47926	917.16473	-1132.39014	-394.76123	942.45062	-1126.53687				-98.89408	471.60379	-1172.36389	-461.56284	477.69803	-1182.25867							
14	0.130										-377.36877	1549.82349	-1081.53076																-537.73169	1161.20239	-1295.46973				-522.40149	997.31677	-1114.73669	-123.55454	916.72229	-1133.93469	-394.97379	942.30231	-1126.52710				-98.48933	471.70258	-1172.90100	-461.70862	477.52463	-1182.49988							
15	0.140										-377.52640	1549.74158	-1081.57800																-538.07953	1161.24207	-1295.82751				-522.55469	997.21802	-1114.79187	-123.56245	916.71289	-1133.93994	-394.25266	942.05792	-1126.93384				-98.83205	471.64069	-1172.34790	-461.71506	477.51749	-1182.50171							
16	0.150										-377.67151	1549.58533	-1081.35413																-538.38959	1161.29321	-1296.03442				-523.28479	997.25653	-1115.28320	-123.63687	916.70660	-1133.99170	-394.73669	942.15979	-1126.70093				-97.68239	472.24994	-1173.50989	-461.70776	477.50070	-1182.49670							
17	0.160										-377.87714	1549.31494	-1081.05566																-538.66327	1161.39014	-1296.26978				-523.37170	997.27094	-1115.32422	-124.15010	916.86835	-1134.20093	-394.02634	942.05829	-1126.77942				-98.37399	471.77847	-1172.87341	-461.68350	477.47089	-1182.48279							
18	0.170										-377.98428	1549.30249	-1080.77185																-539.26501	1161.49561	-1295.99011				-523.81848	996.85315	-1115.04846	-124.68456	917.81049	-1134.08398	-394.35379	941.99091	-1127.30298				-98.32232	471.81195	-1172.86084	-461.97809	477.99997	-1182.69666							
19	0.180										-378.06070	1549.30945	-1080.02966																-539.52502	1161.58777	-1296.17944				-524.19019	996.69958	-1114.99878	-124.90113	916.98846	-1134.57458	-394.68961	941.72723	-1126.60986				-97.27789	472.37521	-1173.38306	-461.61935	477.08167	-1182.12195							
20	0.190										-378.21164	1549.28345	-1079.77515																-539.73877	1161.67383	-1296.25146				-525.49908	997.31976	-1115.24182	-124.96821	917.77496	-1134.28064	-394.50507	941.72516	-1126.95251				-97.89620	471.89282	-1172.79529	-461.68192	477.41757	-1182.47583							
21	0.200										-378.35776	1549.36353	-1079.78235																-539.99146	1161.76038	-1296.25964				-525.84692	997.59418	-1115.07922	-125.09615	916.95740	-1134.70972	-394.84979	941.95215	-1127.54370				-96.89146	472.53375	-1173.27881	-462.00589	477.54013	-1182.09229							
22	0.210										-378.51013	1549.43286	-1079.79309																-540.22864	1161.82947	-1296.20337				-525.78619	997.25214	-1115.12341	-125.28040	916.92426	-1134.83716	-395.16196	941.77954	-1126.97180				-96.58829	472.58194	-1173.20215	-461.79642	477.29428	-1182.74683							
23	0.220										-378.62698	1549.50220	-1079.56433																-540.75073	1161.69116	-1295.36707				-526.24615	997.04742	-1114.96692	-125.38495	916.93652	-1134.91040	-394.96005	941.78082	-1127.30664				-96.36757	472.42819	-1173.17102	-461.96103	477.13766	-1182.91284							
24	0.230										-378.77881	1549.30115	-1079.18970																-541.19269	1161.49133	-1294.40027				-527.15765	997.38452	-1115.07068	-126.13602	916.72290	-1135.21130	-394.99600	941.77832	-1127.32324				-96.14725	472.32120	-1173.68726	-462.19601	477.13367	-1183.92566							
25	0.240										-378.86188	1549.40796	-1078.97571																-541.65411	1161.84668	-1294.41492				-527.26880	997.39294	-1115.12219	-126.26254	916.70392	-1135.29895	-395.04126	941.77765	-1127.34436				-95.97255	472.38150	-1173.86096	-462.34433	477.03049	-1184.30994							
26	0.250										-378.99811	1549.37183	-1078.73865																-542.06073	1162.27222	-1294.55029				-527.40601	997.11115	-1114.67712	-126.34518	916.69733	-1135.35632	-395.44446	941.76239	-1127.39514				-95.98587	472.26416	-1174.00745	-462.44879	476.97696	-1184.58203							
27	0.260										-379.07269	1549.50574	-1078.60254																-542.21777	1162.36230	-1294.37231				-527.74200	997.06250	-1114.25012	-126.44798	916.68091	-1135.42749	-395.80844	941.63287	-1127.26379				-96.02728	472.36676	-1174.09180	-462.42551	476.90396	-1183.90125							
28	0.270										-379.17474	1549.39612	-1078.42615	-254.37277	1308.71399	-1156.75232													-542.41284	1162.09839	-1292.27319				-528.02094	996.97742	-1113.70679	-126.61066	916.68164	-1135.54089	-395.84479	941.49548	-1128.16809				-95.66277	472.69592	-1174.53674	-462.10577	476.45856	-1184.56274							
29	0.280										-379.23111	1549.32739	-1077.84363	-254.51933	1308.36682	-1156.27539													-542.55420	1162.58813	-1293.86389				-528.10638	996.95618	-1113.57593	-126.74540	916.66492	-1135.63428	-395.78891	941.56763	-1127.89917				-95.15937	472.81763	-1174.51343	-462.72882	476.93185	-1184.94946							
30	0.290										-379.29156	1549.27673	-1077.25757	-254.51933	1308.36682	-1156.27539													-543.09296	1162.70361	-1293.25696				-528.16437	996.95868	-1113.60266	-126.93560	916.60529	-1135.76514	-395.91711	941.48364	-1128.20093				-95.12553	472.84192	-1174.50586	-462.95663	476.75418	-1185.53650							
31	0.300										-379.31152	1549.37268	-1077.10901	-254.22221	1307.97168	-1155.84155													-543.26465	1162.78394	-1293.00635				-528.21265	996.95789	-1113.62451	-126.98185	916.59607	-1135.79712	-395.86414	941.55103	-1127.93286				-95.30713	472.84930	-1174.73914	-462.99734	476.76025	-1185.55457							
